<svg width="548" height="144" viewBox="0 0 548 144" fill="none" xmlns="http://www.w3.org/2000/svg">
    <path d="M67.6277 131.7C68.5615 129.296 69.0067 126.73 68.9373 124.152C69.0797 117.007 70.9893 110.008 74.4957 103.781C77.9935 97.564 82.9814 92.3139 89.0109 88.5024C91.2435 87.3049 93.2099 85.6669 94.7912 83.6875C96.3725 81.7081 97.5357 79.4284 98.2106 76.9865C98.8855 74.5446 99.0579 71.9912 98.7175 69.4807C98.3771 66.9702 97.5309 64.5548 96.2301 62.3808C94.4925 59.4768 91.9917 57.096 89.0109 55.512C87.3021 54.3264 85.6605 53.0496 84.0957 51.6816L80.1741 47.8416C72.9882 40.2873 68.9585 30.274 68.9085 19.848C68.9828 17.2693 68.5398 14.7018 67.6058 12.297C66.6717 9.89228 65.2655 7.69894 63.4701 5.8464C61.6828 3.99594 59.5409 2.52456 57.1724 1.52008C54.8039 0.515604 52.2572 -0.00137455 49.6845 2.74473e-06C47.1133 0.00362881 44.5689 0.522901 42.2018 1.5271C39.8348 2.5313 37.6932 4.00003 35.9037 5.8464C34.1115 7.70219 32.7074 9.89679 31.7736 12.3018C30.8398 14.7068 30.395 17.2738 30.4653 19.8528C30.5073 23.2005 31.4293 26.4782 33.1389 29.3568C34.8426 32.2305 37.2751 34.6033 40.1901 36.2352C51.9933 43.704 60.2061 57.984 60.2061 72.0288C60.177 82.3642 56.2241 92.3029 49.1469 99.8352L40.2189 107.765C37.3053 109.392 34.8717 111.763 33.1629 114.643C31.4493 117.518 30.5325 120.802 30.4893 124.152C30.4159 126.731 30.8592 129.298 31.7932 131.703C32.7272 134.107 34.133 136.301 35.9277 138.154C37.7154 140.004 39.8574 141.475 42.2258 142.479C44.5942 143.484 47.1407 144.001 49.7133 144C52.2854 143.997 54.8307 143.478 57.1986 142.474C59.5665 141.47 61.7089 140.001 63.4989 138.154C65.2903 136.298 66.6939 134.104 67.6277 131.7Z"
          fill="#0BA89A"/>
    <path d="M93.7005 30.528C91.5837 27.3504 90.4557 23.6112 90.4557 19.7904C90.459 14.6723 92.4865 9.76322 96.0957 6.1344C99.234 2.97715 103.373 1.01042 107.803 0.571629C112.233 0.132841 116.678 1.24935 120.374 3.7296C123.541 5.85554 126.006 8.87214 127.459 12.3984C128.912 15.9287 129.291 19.8092 128.549 23.5541C127.807 27.2989 125.977 30.7417 123.288 33.4512C120.606 36.1532 117.181 37.995 113.448 38.7414C109.715 39.4877 105.845 39.1049 102.331 37.6416C98.8134 36.1769 95.8098 33.7012 93.7005 30.528Z"
          fill="#0BA89A"/>
    <path d="M99.0045 108.086C102.168 105.965 105.888 104.832 109.689 104.832V104.822C112.216 104.825 114.718 105.327 117.051 106.299C119.383 107.271 121.501 108.694 123.283 110.486C126.431 113.654 128.39 117.811 128.827 122.256C129.264 126.7 128.154 131.16 125.683 134.88C123.574 138.057 120.568 140.537 117.048 142.003C113.534 143.466 109.663 143.849 105.93 143.103C102.198 142.357 98.7722 140.515 96.0909 137.813C93.4005 135.103 91.5697 131.659 90.8277 127.913C90.0857 124.168 90.4656 120.286 91.9197 116.755C93.373 113.229 95.8383 110.213 99.0045 108.086Z"
          fill="#0BA89A"/>
    <path d="M155.659 61.2384C157.77 64.4149 158.898 68.1477 158.899 71.9671C158.896 77.0864 156.868 81.9968 153.259 85.6272C151.477 87.4188 149.359 88.8413 147.026 89.8132C144.694 90.7851 142.192 91.2874 139.665 91.2912C135.86 91.2913 132.14 90.1583 128.981 88.0368C125.814 85.9109 123.349 82.8943 121.896 79.368C120.442 75.8371 120.062 71.9556 120.804 68.2098C121.546 64.4639 123.377 61.0203 126.067 58.3104C128.749 55.6074 132.175 53.765 135.909 53.0187C139.642 52.2723 143.514 52.6557 147.029 54.12C150.547 55.586 153.55 58.0635 155.659 61.2384Z"
          fill="#0BA89A"/>
    <path d="M9.04773 55.9056C12.2109 53.784 15.9261 52.6512 19.7325 52.6512C22.259 52.6565 24.7596 53.16 27.0913 54.1327C29.423 55.1054 31.5401 56.5283 33.3213 58.32C36.4683 61.4863 38.4257 65.6419 38.863 70.0846C39.3003 74.5274 38.1906 78.9848 35.7213 82.704C33.6125 85.8787 30.6089 88.3561 27.0909 89.8224C23.5756 91.2785 19.7069 91.6576 15.9758 90.9116C12.2447 90.1655 8.81923 88.3279 6.13413 85.632C3.4447 82.9225 1.61441 79.4797 0.872435 75.7349C0.130464 71.99 0.509795 68.1095 1.96293 64.5792C3.41538 61.0513 5.88078 58.033 9.04773 55.9056Z"
          fill="#0BA89A"/>
    <path d="M236.354 107.823C250.297 107.823 259.058 99.641 259.74 87.6069H246.035C245.183 93.1978 241.501 96.3341 236.524 96.3341C229.74 96.3341 225.342 90.641 225.342 80.6182C225.342 70.7319 229.774 65.0728 236.524 65.0728C241.842 65.0728 245.251 68.5841 246.035 73.8H259.74C259.126 61.6978 249.956 53.7546 236.285 53.7546C220.399 53.7546 210.581 64.766 210.581 80.8228C210.581 96.7432 220.229 107.823 236.354 107.823ZM292.697 107.823C308.584 107.823 318.47 96.9478 318.47 80.8228C318.47 64.5955 308.584 53.7546 292.697 53.7546C276.811 53.7546 266.925 64.5955 266.925 80.8228C266.925 96.9478 276.811 107.823 292.697 107.823ZM292.766 96.5728C285.436 96.5728 281.686 89.8569 281.686 80.7205C281.686 71.5841 285.436 64.8341 292.766 64.8341C299.959 64.8341 303.709 71.5841 303.709 80.7205C303.709 89.8569 299.959 96.5728 292.766 96.5728ZM374.95 54.4364H359.575L348.734 91.9023H348.189L337.314 54.4364H321.973L340.28 106.8H356.643L374.95 54.4364ZM395.814 107.789C403.552 107.789 408.564 104.414 411.121 99.5387H411.53V106.8H425.302V71.4819C425.302 59.0046 414.734 53.7546 403.075 53.7546C390.53 53.7546 382.28 59.7546 380.268 69.3L393.7 70.391C394.689 66.9137 397.791 64.3569 403.007 64.3569C407.95 64.3569 410.78 66.8455 410.78 71.141V71.3455C410.78 74.7205 407.2 75.1637 398.098 76.05C387.734 77.0046 378.427 80.4819 378.427 92.175C378.427 102.539 385.825 107.789 395.814 107.789ZM399.973 97.766C395.507 97.766 392.302 95.6864 392.302 91.6978C392.302 87.6069 395.677 85.5955 400.791 84.8796C403.962 84.4364 409.143 83.6864 410.882 82.5273V88.0841C410.882 93.5728 406.348 97.766 399.973 97.766ZM451.092 36.9819H436.57V106.8H451.092V36.9819ZM462.726 106.8H477.248V54.4364H462.726V106.8ZM470.021 47.6864C474.351 47.6864 477.896 44.3796 477.896 40.3228C477.896 36.3 474.351 32.9932 470.021 32.9932C465.726 32.9932 462.18 36.3 462.18 40.3228C462.18 44.3796 465.726 47.6864 470.021 47.6864ZM508.177 107.652C516.632 107.652 521.03 102.777 523.041 98.4137H523.655V106.8H537.973V36.9819H523.484V63.2319H523.041C521.098 58.9705 516.905 53.7546 508.143 53.7546C496.655 53.7546 486.939 62.6864 486.939 80.6864C486.939 98.2091 496.246 107.652 508.177 107.652ZM512.78 96.0955C505.655 96.0955 501.768 89.7546 501.768 80.6182C501.768 71.55 505.587 65.3114 512.78 65.3114C519.837 65.3114 523.791 71.2773 523.791 80.6182C523.791 89.9591 519.768 96.0955 512.78 96.0955Z"
          fill="#1F2937"/>
</svg>
